<?xml version="1.0" encoding="UTF-8"?>
<!DOCTYPE svg PUBLIC "-//W3C//DTD SVG 1.1//EN" "http://www.w3.org/Graphics/SVG/1.1/DTD/svg11.dtd">
<!-- Creator: CorelDRAW 2020 (64 Bit) -->
<svg xmlns="http://www.w3.org/2000/svg" xml:space="preserve" width="28.9948mm" height="39.6976mm" version="1.1" style="shape-rendering:geometricPrecision; text-rendering:geometricPrecision; image-rendering:optimizeQuality; fill-rule:evenodd; clip-rule:evenodd"
viewBox="0 0 2899.48 3969.76"
 xmlns:xlink="http://www.w3.org/1999/xlink"
 xmlns:xodm="http://www.corel.com/coreldraw/odm/2003">
 <defs>
  <style type="text/css">
   <![CDATA[
    .fil0 {fill:#1C1D26;fill-rule:nonzero}
   ]]>
  </style>
 </defs>
 <g id="Camada_x0020_1">
  <metadata id="CorelCorpID_0Corel-Layer"/>
  <path class="fil0" d="M2523.76 886.64c-5.63,-33.43 -29.47,-60.96 -61.84,-71.39 -32.36,-10.44 -67.87,-2.04 -92.08,21.77l-469.33 469 -368.15 -699.05c-11.64,-22.35 -31.92,-38.47 -55.55,-45.18l-0.18 -0.06 -0.22 -0.06 -0.38 -0.11 -0.39 -0.12 -0.29 -0.09 -0.09 -0.02 -0.38 -0.11 -0.39 -0.1 -0.39 -0.11 -0.23 -0.07 -0.15 -0.03 -0.39 -0.1 -0.39 -0.11 -0.38 -0.09 -0.17 -0.05 -0.22 -0.05 -0.39 -0.1 -0.39 -0.09 -0.39 -0.09 -0.1 -0.03 -0.29 -0.06 -0.4 -0.09 -0.39 -0.09 -0.42 -0.1 -0.36 -0.07 -0.4 -0.08 -0.39 -0.08 -0.36 -0.08 -0.04 0 -0.39 -0.07 -0.4 -0.08 -0.39 -0.07 -0.29 -0.06 -0.11 -0.01 -0.4 -0.07 -0.39 -0.07 -0.4 -0.06 -0.23 -0.04 -0.17 -0.03 -0.4 -0.06 -0.4 -0.06 -0.4 -0.06 -0.15 -0.02 -0.25 -0.03 -0.4 -0.06 -0.4 -0.05 -0.4 -0.05 -0.09 -0.02 -0.32 -0.03 -0.4 -0.05 -0.4 -0.05 -0.4 -0.04 -0.02 -0.01 -0.39 -0.03 -0.4 -0.04 -0.41 -0.04 -0.35 -0.04 -0.05 0 -0.41 -0.03 -0.4 -0.04 -0.41 -0.03 -0.28 -0.02 -0.13 -0.01 -0.4 -0.02 -0.41 -0.03 -0.41 -0.02 -0.21 -0.02 -0.2 0 -0.41 -0.02 -0.4 -0.02 -0.41 -0.02 -0.15 0 -0.26 -0.01 -0.41 -0.02 -0.41 -0.01 -0.41 0 -0.08 -0.01 -0.34 0 -0.41 -0.01 -0.41 0 -0.41 0c-33.62,0 -64.33,19.02 -79.22,49.06l-201.44 383.42 -507.02 -942.75c-17.47,-32.89 -48.68,-47.93 -79.7,-47.63l-1.64 -0.01 -0.08 0 -0.89 0.01 -0.12 0 -2.62 0.08 -0.1 0 -0.94 0.05 -1.54 0.09 -1.96 0.16 -0.16 0.02 -1.48 0.14 -0.17 0.02 -0.16 0.02 -1.95 0.23 -0.47 0.06 -1.48 0.22 -1.87 0.3 -0.08 0.02 -1.94 0.36 -0.55 0.11 -0.19 0.04 -1.08 0.23 -0.11 0.02 -1.92 0.44 -0.16 0.04 -1.17 0.29 -0.12 0.03 -0.47 0.12 -1.9 0.52 -0.23 0.06 -1.67 0.5 -0.76 0.24 -0.11 0.04 -1.41 0.46 -1.97 0.67 -0.54 0.19 -0.71 0.27 -0.1 0.04 -1.85 0.72 -1.67 0.69 -0.15 0.06 -1.81 0.78 -0.01 0.01 -0.51 0.24 -2.18 1.03 -0.38 0.18 -0.5 0.25 -1.76 0.91 -0.16 0.09 -1.04 0.56 -0.05 0.02 -1.95 1.1 -0.13 0.08 -1.2 0.72 -1.25 0.76 -0.24 0.15 -0.83 0.53 -1.66 1.09 -0.35 0.24 -0.1 0.07 -1.07 0.75 -2.22 1.62 -0.02 0.01 -0.02 0.02 -2.63 2.05 -0.06 0.05 -2.43 2.06 -0.2 0.17 -0.36 0.32 -1.92 1.77 -0.27 0.25 -0.75 0.73 -1.43 1.43 -0.28 0.28 -2.37 2.55 -0.12 0.13 -1.88 2.19 -0.29 0.34 -0.2 0.26 -0.06 0.08 -0.07 0.08 -0.06 0.08 -0.07 0.08 -0.06 0.08 -0.07 0.08 -0.06 0.08 -0.07 0.08 -0.06 0.08 -0.06 0.08 -1.02 1.29 -0.06 0.08 -0.06 0.08 -0.07 0.08 -0.06 0.08 -0.06 0.08 -0.01 0.02 -0.12 0.15 -0.06 0.08 -1.64 2.25 -0.06 0.08 -0.06 0.09 -0.06 0.08 -0.09 0.13 -0.1 0.15 -1.48 2.23 -0.4 0.59 -0.2 0.32 -1.52 2.51 -0.15 0.25 -0.18 0.33 -1.34 2.4 -0.24 0.45 -0.13 0.25 -1.51 3.03 -0.04 0.07 -1.34 2.98 -0.14 0.32 -0.27 0.65 -0.81 2.02 -0.08 0.22 -0.47 1.26 -0.95 2.66 -0.08 0.25 -1.14 3.68 -0.1 0.35 -0.03 0.11 -0.8 3.08 -0.03 0.12 -0.03 0.11 0 0.01 -0.03 0.1 -0.02 0.11 -0.03 0.11 -0.02 0.11 -0.03 0.12 -0.55 2.48 -0.02 0.11 -0.03 0.11 -0.02 0.12 -0.02 0.11 -0.03 0.12 -0.02 0.11 -0.04 0.16 -0.04 0.24 -0.67 3.73 -485.81 3106.14 -0.84 -0.47 -2.26 20.29 -2.27 0 2.27 2.26 13.58 6.77 0.92 -0.92 1296.04 724.9c82.47,45.11 182.35,45.11 264.82,0l1321.86 -733.01 -2.26 -20.29 -0.95 0.52 -372.52 -2296.51z"/>
 </g>
</svg>
