<?xml version="1.0" encoding="UTF-8"?>
<!DOCTYPE svg PUBLIC "-//W3C//DTD SVG 1.1//EN" "http://www.w3.org/Graphics/SVG/1.1/DTD/svg11.dtd">
<!-- Creator: CorelDRAW 2020 (64 Bit) -->
<svg xmlns="http://www.w3.org/2000/svg" xml:space="preserve" width="28.9948mm" height="28.7264mm" version="1.1" style="shape-rendering:geometricPrecision; text-rendering:geometricPrecision; image-rendering:optimizeQuality; fill-rule:evenodd; clip-rule:evenodd"
viewBox="0 0 2899.48 2872.64"
 xmlns:xlink="http://www.w3.org/1999/xlink"
 xmlns:xodm="http://www.corel.com/coreldraw/odm/2003">
 <defs>
  <style type="text/css">
   <![CDATA[
    .fil0 {fill:#1C1D26}
   ]]>
  </style>
 </defs>
 <g id="Camada_x0020_1">
  <metadata id="CorelCorpID_0Corel-Layer"/>
  <g id="_1776243898528">
   <g>
    <path class="fil0" d="M2825.71 2136.92l-12.98 33.74c-221.09,430.63 -613.02,694.9 -1172.01,706.47 -261.21,5.43 -510.38,-61.59 -672.96,-134.5 -351.11,-157.62 -646.3,-450.22 -807.46,-762.63 -231.24,-447.85 -273.01,-1071.02 207.88,-1536.34 7.31,0 -58.28,100.99 -50.97,100.99l-13.21 43.18c-346.63,1084.95 721.09,2014.63 1758.85,1908.45 249.65,-25.95 567.72,-162.57 762.86,-359.36l0 0 0 0zm0 0l0 0 0 0 0 0z"/>
    <path class="fil0" d="M2197.59 1688.36c261.21,1.89 533.74,-120.34 695.37,-291.65 -141.34,358.66 -550.5,589.19 -1099.1,515.81 -459.41,-61.59 -896.89,-523.83 -941.95,-987.02 -33.03,-337.19 84.47,-538.23 278.2,-782.44 -67.25,127.65 -92.5,226.05 -98.63,288.82 -73.87,729.58 582.34,1252.7 1166.11,1256.48l0 0 0 0zm0 0l0 0 0 0 0 0z"/>
    <path class="fil0" d="M2866.77 782.74c-40.59,93.2 -274.19,268.99 -377.54,290.94 -408.68,87.07 -670.36,-106.65 -807.46,-327.28 -20.29,-33.03 -58.05,-122.94 -64.89,-145.82 -53.08,-180.75 -28.78,-454.22 129.78,-595.8 -47.66,134.5 -54.74,290.94 -29.5,392.64 15.34,61.35 61.59,168.71 108.07,236.2 84.47,122.94 138.04,152.67 246.81,218.03 48.84,29.26 101.46,52.86 124.12,59.46 102.89,30.2 320.21,109.95 670.61,-128.37l0 0 0 0zm0 0l0 0 0 0 0 0z"/>
   </g>
  </g>
 </g>
</svg>
